<?xml version="1.0" encoding="utf-8"?>
<!-- Generator: Adobe Illustrator 24.0.0, SVG Export Plug-In . SVG Version: 6.00 Build 0)  -->
<svg version="1.1" id="Layer_1" xmlns="http://www.w3.org/2000/svg" xmlns:xlink="http://www.w3.org/1999/xlink" x="0px" y="0px"
	 viewBox="0 0 21 8" style="enable-background:new 0 0 21 8;" xml:space="preserve">
<style type="text/css">
	.st0{clip-path:url(#SVGID_2_);}
	.st1{clip-path:url(#SVGID_10_);}
	.st2{filter:url(#Adobe_OpacityMaskFilter);}
	.st3{fill:url(#SVGID_12_);}
	.st4{mask:url(#SVGID_11_);}
	.st5{opacity:0.8;fill:#FFFFFF;}
	.st6{filter:url(#Adobe_OpacityMaskFilter_1_);}
	.st7{fill:url(#SVGID_14_);}
	.st8{mask:url(#SVGID_13_);}
	.st9{filter:url(#Adobe_OpacityMaskFilter_2_);}
	.st10{fill:url(#SVGID_16_);}
	.st11{mask:url(#SVGID_15_);}
	.st12{filter:url(#Adobe_OpacityMaskFilter_3_);}
	.st13{fill:url(#SVGID_18_);}
	.st14{mask:url(#SVGID_17_);}
	.st15{filter:url(#Adobe_OpacityMaskFilter_4_);}
	.st16{fill:url(#SVGID_20_);}
	.st17{mask:url(#SVGID_19_);}
	.st18{filter:url(#Adobe_OpacityMaskFilter_5_);}
	.st19{fill:url(#SVGID_22_);}
	.st20{mask:url(#SVGID_21_);}
	.st21{filter:url(#Adobe_OpacityMaskFilter_6_);}
	.st22{fill:url(#SVGID_24_);}
	.st23{mask:url(#SVGID_23_);}
	.st24{filter:url(#Adobe_OpacityMaskFilter_7_);}
	.st25{fill:url(#SVGID_26_);}
	.st26{mask:url(#SVGID_25_);}
	.st27{filter:url(#Adobe_OpacityMaskFilter_8_);}
	.st28{fill:url(#SVGID_28_);}
	.st29{mask:url(#SVGID_27_);}
	.st30{filter:url(#Adobe_OpacityMaskFilter_9_);}
	.st31{fill:url(#SVGID_30_);}
	.st32{mask:url(#SVGID_29_);}
	.st33{clip-path:url(#SVGID_32_);}
	.st34{filter:url(#Adobe_OpacityMaskFilter_10_);}
	.st35{fill:url(#SVGID_34_);}
	.st36{mask:url(#SVGID_33_);}
	.st37{filter:url(#Adobe_OpacityMaskFilter_11_);}
	.st38{fill:url(#SVGID_36_);}
	.st39{mask:url(#SVGID_35_);}
	.st40{filter:url(#Adobe_OpacityMaskFilter_12_);}
	.st41{fill:url(#SVGID_38_);}
	.st42{mask:url(#SVGID_37_);}
	.st43{filter:url(#Adobe_OpacityMaskFilter_13_);}
	.st44{fill:url(#SVGID_40_);}
	.st45{mask:url(#SVGID_39_);}
	.st46{filter:url(#Adobe_OpacityMaskFilter_14_);}
	.st47{fill:url(#SVGID_42_);}
	.st48{mask:url(#SVGID_41_);}
	.st49{filter:url(#Adobe_OpacityMaskFilter_15_);}
	.st50{fill:url(#SVGID_44_);}
	.st51{mask:url(#SVGID_43_);}
	.st52{filter:url(#Adobe_OpacityMaskFilter_16_);}
	.st53{fill:url(#SVGID_46_);}
	.st54{mask:url(#SVGID_45_);}
	.st55{filter:url(#Adobe_OpacityMaskFilter_17_);}
	.st56{fill:url(#SVGID_48_);}
	.st57{mask:url(#SVGID_47_);}
	.st58{filter:url(#Adobe_OpacityMaskFilter_18_);}
	.st59{fill:url(#SVGID_50_);}
	.st60{mask:url(#SVGID_49_);}
	.st61{filter:url(#Adobe_OpacityMaskFilter_19_);}
	.st62{fill:url(#SVGID_52_);}
	.st63{mask:url(#SVGID_51_);}
</style>
<g>
	<g>
		<defs>
			<rect id="SVGID_1_" width="21" height="8"/>
		</defs>
		<clipPath id="SVGID_2_">
			<use xlink:href="#SVGID_1_"  style="overflow:visible;"/>
		</clipPath>
		<g class="st0">
			<g>
				<g>
					<defs>
						<rect id="SVGID_3_" y="-5.7" width="21" height="21"/>
					</defs>
					<clipPath id="SVGID_4_">
						<use xlink:href="#SVGID_3_"  style="overflow:visible;"/>
					</clipPath>
				</g>
				<g>
					<defs>
						<rect id="SVGID_5_" y="-5.7" width="21" height="21"/>
					</defs>
					<clipPath id="SVGID_6_">
						<use xlink:href="#SVGID_5_"  style="overflow:visible;"/>
					</clipPath>
					<g style="clip-path:url(#SVGID_6_);">
						
							<image style="overflow:visible;" width="129" height="257" xlink:href="2679BF38.png"  transform="matrix(0.24 0 0 0.24 -4.1497 -19.18)">
						</image>
					</g>
				</g>
				<g>
					<defs>
						<rect id="SVGID_7_" y="-5.7" width="21" height="21"/>
					</defs>
					<clipPath id="SVGID_8_">
						<use xlink:href="#SVGID_7_"  style="overflow:visible;"/>
					</clipPath>
				</g>
			</g>
			<g>
				<defs>
					<rect id="SVGID_9_" y="-5.7" width="21" height="21"/>
				</defs>
				<clipPath id="SVGID_10_">
					<use xlink:href="#SVGID_9_"  style="overflow:visible;"/>
				</clipPath>
				<g class="st1">
					<g>
						<defs>
							<filter id="Adobe_OpacityMaskFilter" filterUnits="userSpaceOnUse" x="-11.6" y="-17.2" width="26.8" height="27.8">
								<feColorMatrix  type="matrix" values="1 0 0 0 0  0 1 0 0 0  0 0 1 0 0  0 0 0 1 0"/>
							</filter>
						</defs>
						<mask maskUnits="userSpaceOnUse" x="-11.6" y="-17.2" width="26.8" height="27.8" id="SVGID_11_">
							<g class="st2">
								
									<radialGradient id="SVGID_12_" cx="-31.4" cy="276.133" r="14.3826" gradientTransform="matrix(0.7071 -0.7071 0.7071 0.7071 -173.365 -223.2096)" gradientUnits="userSpaceOnUse">
									<stop  offset="0" style="stop-color:#FFFFFF"/>
									<stop  offset="1" style="stop-color:#000000"/>
								</radialGradient>
								<polygon class="st3" points="19.4,-13.8 -8.6,14.2 -15.1,7.7 13,-20.3 								"/>
							</g>
						</mask>
						<g class="st4">
							<polygon class="st5" points="15.2,-12.5 11,-16.8 6.7,-12.5 							"/>
							<polygon class="st5" points="-2.8,-3 -11.1,5.3 -5.9,10.6 7.7,-3 							"/>
							<polygon class="st5" points="15.2,-12.5 10.5,-17.2 5.8,-12.5 							"/>
							<polygon class="st5" points="-3.7,-3 -11.6,4.8 -6.3,10.1 6.8,-3 							"/>
						</g>
						<defs>
							<filter id="Adobe_OpacityMaskFilter_1_" filterUnits="userSpaceOnUse" x="-11.7" y="-3" width="23.1" height="14.6">
								<feColorMatrix  type="matrix" values="1 0 0 0 0  0 1 0 0 0  0 0 1 0 0  0 0 0 1 0"/>
							</filter>
						</defs>
						<mask maskUnits="userSpaceOnUse" x="-11.7" y="-3" width="23.1" height="14.6" id="SVGID_13_">
							<g class="st6">
								
									<radialGradient id="SVGID_14_" cx="-34.1225" cy="278.732" r="14.3822" gradientTransform="matrix(0.7071 -0.7071 0.7071 0.7071 -173.365 -223.2096)" gradientUnits="userSpaceOnUse">
									<stop  offset="0" style="stop-color:#FFFFFF"/>
									<stop  offset="1" style="stop-color:#000000"/>
								</radialGradient>
								<polygon class="st7" points="19.4,-10.1 -8.7,17.9 -15.1,11.5 12.9,-16.5 								"/>
							</g>
						</mask>
						<g class="st8">
							<polygon class="st5" points="0.9,-3 -11.2,9.1 -8.7,11.5 -3.2,11.5 11.4,-3 							"/>
							<polygon class="st5" points="0,-3 -11.7,8.6 -8.7,11.5 -4.1,11.5 10.5,-3 							"/>
						</g>
					</g>
					<g>
						<defs>
							<filter id="Adobe_OpacityMaskFilter_2_" filterUnits="userSpaceOnUse" x="3.9" y="-19.9" width="27.8" height="27.8">
								<feColorMatrix  type="matrix" values="1 0 0 0 0  0 1 0 0 0  0 0 1 0 0  0 0 0 1 0"/>
							</filter>
						</defs>
						<mask maskUnits="userSpaceOnUse" x="3.9" y="-19.9" width="27.8" height="27.8" id="SVGID_15_">
							<g class="st9">
								
									<radialGradient id="SVGID_16_" cx="-18.6133" cy="285.2077" r="14.3826" gradientTransform="matrix(0.7071 -0.7071 0.7071 0.7071 -173.365 -223.2096)" gradientUnits="userSpaceOnUse">
									<stop  offset="0" style="stop-color:#FFFFFF"/>
									<stop  offset="1" style="stop-color:#000000"/>
								</radialGradient>
								<polygon class="st10" points="34.9,-16.5 6.9,11.6 0.4,5.1 28.4,-22.9 								"/>
							</g>
						</mask>
						<g class="st11">
							<polygon class="st5" points="10,-3 4.3,2.7 9.6,7.9 20.6,-3 							"/>
							<polygon class="st5" points="26.2,-12.5 26.2,-8.6 31.7,-14.1 26.4,-19.4 19.5,-12.5 							"/>
							<polygon class="st5" points="9.1,-3 3.9,2.2 9.1,7.5 19.6,-3 							"/>
							<polygon class="st5" points="26.2,-12.5 26.2,-9.5 31.2,-14.6 26,-19.9 18.6,-12.5 							"/>
						</g>
						<defs>
							<filter id="Adobe_OpacityMaskFilter_3_" filterUnits="userSpaceOnUse" x="3.8" y="-16.1" width="27.8" height="27.6">
								<feColorMatrix  type="matrix" values="1 0 0 0 0  0 1 0 0 0  0 0 1 0 0  0 0 0 1 0"/>
							</filter>
						</defs>
						<mask maskUnits="userSpaceOnUse" x="3.8" y="-16.1" width="27.8" height="27.6" id="SVGID_17_">
							<g class="st12">
								
									<radialGradient id="SVGID_18_" cx="-21.3354" cy="287.8065" r="14.3824" gradientTransform="matrix(0.7071 -0.7071 0.7071 0.7071 -173.365 -223.2096)" gradientUnits="userSpaceOnUse">
									<stop  offset="0" style="stop-color:#FFFFFF"/>
									<stop  offset="1" style="stop-color:#000000"/>
								</radialGradient>
								<polygon class="st13" points="34.8,-12.7 6.8,15.3 0.3,8.9 28.3,-19.2 								"/>
							</g>
						</mask>
						<g class="st14">
							<polygon class="st5" points="26.2,-12.5 26.2,-4.9 31.6,-10.4 26.3,-15.6 23.2,-12.5 							"/>
							<polygon class="st5" points="13.7,-3 4.3,6.4 9.4,11.5 9.7,11.5 24.2,-3 							"/>
							<polygon class="st5" points="26.2,-12.5 26.2,-5.9 31.1,-10.8 25.9,-16.1 22.3,-12.5 							"/>
							<polygon class="st5" points="12.8,-3 3.8,6 9,11.2 23.3,-3 							"/>
						</g>
					</g>
					<g>
						<defs>
							<filter id="Adobe_OpacityMaskFilter_4_" filterUnits="userSpaceOnUse" x="-9.2" y="2" width="27.8" height="27.8">
								<feColorMatrix  type="matrix" values="1 0 0 0 0  0 1 0 0 0  0 0 1 0 0  0 0 0 1 0"/>
							</filter>
						</defs>
						<mask maskUnits="userSpaceOnUse" x="-9.2" y="2" width="27.8" height="27.8" id="SVGID_19_">
							<g class="st15">
								
									<radialGradient id="SVGID_20_" cx="-953.5761" cy="595.7455" r="14.3826" gradientTransform="matrix(-0.7071 -0.7071 0.7071 -0.7071 -1093.2008 -234.4265)" gradientUnits="userSpaceOnUse">
									<stop  offset="0" style="stop-color:#FFFFFF"/>
									<stop  offset="1" style="stop-color:#000000"/>
								</radialGradient>
								<polygon class="st16" points="-5.8,-1.2 22.3,26.9 15.8,33.3 -12.2,5.3 								"/>
							</g>
						</mask>
						<g class="st17">
							<polygon class="st5" points="6,11.5 -3.4,2 -8.7,7.3 -4.5,11.5 							"/>
							<polygon class="st5" points="4.6,20.6 13.4,29.4 18.6,24.1 15.1,20.6 							"/>
							<polygon class="st5" points="3.7,20.6 12.9,29.9 18.2,24.6 14.2,20.6 							"/>
							<polygon class="st5" points="5.1,11.5 -3.9,2.5 -9.2,7.8 -5.4,11.5 							"/>
						</g>
						<defs>
							<filter id="Adobe_OpacityMaskFilter_5_" filterUnits="userSpaceOnUse" x="-5.4" y="2.1" width="27.8" height="27.8">
								<feColorMatrix  type="matrix" values="1 0 0 0 0  0 1 0 0 0  0 0 1 0 0  0 0 0 1 0"/>
							</filter>
						</defs>
						<mask maskUnits="userSpaceOnUse" x="-5.4" y="2.1" width="27.8" height="27.8" id="SVGID_21_">
							<g class="st18">
								
									<radialGradient id="SVGID_22_" cx="-956.2982" cy="598.344" r="14.3826" gradientTransform="matrix(-0.7071 -0.7071 0.7071 -0.7071 -1093.2008 -234.4265)" gradientUnits="userSpaceOnUse">
									<stop  offset="0" style="stop-color:#FFFFFF"/>
									<stop  offset="1" style="stop-color:#000000"/>
								</radialGradient>
								<polygon class="st19" points="-2,-1.1 26,27 19.6,33.4 -8.5,5.4 								"/>
							</g>
						</mask>
						<g class="st20">
							<polygon class="st5" points="9.7,11.5 0.3,2.1 -4.9,7.4 -0.8,11.5 							"/>
							<polygon class="st5" points="8.3,20.6 17.1,29.5 22.4,24.2 18.8,20.6 							"/>
							<polygon class="st5" points="8.8,11.5 -0.1,2.6 -5.4,7.9 -1.7,11.5 							"/>
							<polygon class="st5" points="7.3,20.6 16.7,29.9 21.9,24.7 17.9,20.6 							"/>
						</g>
					</g>
					<g>
						<defs>
							<filter id="Adobe_OpacityMaskFilter_6_" filterUnits="userSpaceOnUse" x="-1.3" y="-2.6" width="26.7" height="27.8">
								<feColorMatrix  type="matrix" values="1 0 0 0 0  0 1 0 0 0  0 0 1 0 0  0 0 0 1 0"/>
							</filter>
						</defs>
						<mask maskUnits="userSpaceOnUse" x="-1.3" y="-2.6" width="26.7" height="27.8" id="SVGID_23_">
							<g class="st21">
								
									<radialGradient id="SVGID_24_" cx="-955.8649" cy="604.5933" r="14.3823" gradientTransform="matrix(-0.7071 -0.7071 0.7071 -0.7071 -1093.2008 -234.4265)" gradientUnits="userSpaceOnUse">
									<stop  offset="0" style="stop-color:#FFFFFF"/>
									<stop  offset="1" style="stop-color:#000000"/>
								</radialGradient>
								<polygon class="st22" points="2.1,-5.8 30.1,22.2 23.7,28.7 -4.4,0.7 								"/>
							</g>
						</mask>
						<g class="st23">
							<polygon class="st5" points="18.6,11.5 4.4,-2.6 -0.8,2.7 8,11.5 							"/>
							<polygon class="st5" points="17.1,20.6 21.3,24.8 25.4,20.6 							"/>
							<polygon class="st5" points="17.6,11.5 4,-2.1 -1.3,3.1 7.1,11.5 							"/>
							<polygon class="st5" points="16.2,20.6 20.8,25.2 25.4,20.6 							"/>
						</g>
						<defs>
							<filter id="Adobe_OpacityMaskFilter_7_" filterUnits="userSpaceOnUse" x="2.5" y="-2.5" width="26.8" height="27.8">
								<feColorMatrix  type="matrix" values="1 0 0 0 0  0 1 0 0 0  0 0 1 0 0  0 0 0 1 0"/>
							</filter>
						</defs>
						<mask maskUnits="userSpaceOnUse" x="2.5" y="-2.5" width="26.8" height="27.8" id="SVGID_25_">
							<g class="st24">
								
									<radialGradient id="SVGID_26_" cx="-958.5872" cy="607.1915" r="14.3827" gradientTransform="matrix(-0.7071 -0.7071 0.7071 -0.7071 -1093.2008 -234.4265)" gradientUnits="userSpaceOnUse">
									<stop  offset="0" style="stop-color:#FFFFFF"/>
									<stop  offset="1" style="stop-color:#000000"/>
								</radialGradient>
								<polygon class="st25" points="5.9,-5.7 33.9,22.3 27.4,28.8 -0.6,0.8 								"/>
							</g>
						</mask>
						<g class="st26">
							<polygon class="st5" points="22.2,11.5 8.2,-2.5 2.9,2.8 11.7,11.5 							"/>
							<polygon class="st5" points="20.8,20.6 25,24.8 29.3,20.6 							"/>
							<polygon class="st5" points="21.3,11.5 7.7,-2 2.5,3.2 10.8,11.5 							"/>
							<polygon class="st5" points="19.9,20.6 24.6,25.3 29.3,20.6 							"/>
						</g>
					</g>
					<g>
						<defs>
							<filter id="Adobe_OpacityMaskFilter_8_" filterUnits="userSpaceOnUse" x="7.6" y="-3" width="27.8" height="22.7">
								<feColorMatrix  type="matrix" values="1 0 0 0 0  0 1 0 0 0  0 0 1 0 0  0 0 0 1 0"/>
							</filter>
						</defs>
						<mask maskUnits="userSpaceOnUse" x="7.6" y="-3" width="27.8" height="22.7" id="SVGID_27_">
							<g class="st27">
								
									<radialGradient id="SVGID_28_" cx="-958.402" cy="614.678" r="14.3829" gradientTransform="matrix(-0.7071 -0.7071 0.7071 -0.7071 -1093.2008 -234.4265)" gradientUnits="userSpaceOnUse">
									<stop  offset="0" style="stop-color:#FFFFFF"/>
									<stop  offset="1" style="stop-color:#000000"/>
								</radialGradient>
								<polygon class="st28" points="11,-11.1 39.1,16.9 32.6,23.4 4.6,-4.7 								"/>
							</g>
						</mask>
						<g class="st29">
							<polygon class="st5" points="18.3,-3 8.5,-3 8.1,-2.7 22.3,11.5 29.9,11.5 29.9,19.1 30.2,19.4 35.4,14.2 							"/>
							<polygon class="st5" points="35,14.6 17.3,-3 8.5,-3 7.6,-2.2 21.4,11.5 29.9,11.5 29.9,19.7 							"/>
						</g>
						<defs>
							<filter id="Adobe_OpacityMaskFilter_9_" filterUnits="userSpaceOnUse" x="11.4" y="-3" width="27.8" height="23">
								<feColorMatrix  type="matrix" values="1 0 0 0 0  0 1 0 0 0  0 0 1 0 0  0 0 0 1 0"/>
							</filter>
						</defs>
						<mask maskUnits="userSpaceOnUse" x="11.4" y="-3" width="27.8" height="23" id="SVGID_29_">
							<g class="st30">
								
									<radialGradient id="SVGID_30_" cx="-961.1241" cy="617.2769" r="14.3823" gradientTransform="matrix(-0.7071 -0.7071 0.7071 -0.7071 -1093.2008 -234.4265)" gradientUnits="userSpaceOnUse">
									<stop  offset="0" style="stop-color:#FFFFFF"/>
									<stop  offset="1" style="stop-color:#000000"/>
								</radialGradient>
								<polygon class="st31" points="14.8,-11 42.8,17 36.4,23.4 8.3,-4.6 								"/>
							</g>
						</mask>
						<g class="st32">
							<polygon class="st5" points="21.9,-3 12.3,-3 11.9,-2.6 26,11.5 29.9,11.5 29.9,15.5 33.9,19.5 39.2,14.3 							"/>
							<polygon class="st5" points="21,-3 12.3,-3 11.4,-2.1 25,11.5 29.9,11.5 29.9,16.4 33.5,20 38.7,14.7 							"/>
						</g>
					</g>
				</g>
			</g>
			<g>
				<defs>
					<rect id="SVGID_31_" y="-5.7" width="21" height="21"/>
				</defs>
				<clipPath id="SVGID_32_">
					<use xlink:href="#SVGID_31_"  style="overflow:visible;"/>
				</clipPath>
				<g class="st33">
					<g>
						<defs>
							<filter id="Adobe_OpacityMaskFilter_10_" filterUnits="userSpaceOnUse" x="5.7" y="-17.3" width="26.8" height="27.8">
								<feColorMatrix  type="matrix" values="1 0 0 0 0  0 1 0 0 0  0 0 1 0 0  0 0 0 1 0"/>
							</filter>
						</defs>
						<mask maskUnits="userSpaceOnUse" x="5.7" y="-17.3" width="26.8" height="27.8" id="SVGID_33_">
							<g class="st34">
								
									<radialGradient id="SVGID_34_" cx="-231.5945" cy="-466.3064" r="14.3823" gradientTransform="matrix(0.7071 0.7071 -0.7071 0.7071 -144.8998 487.4846)" gradientUnits="userSpaceOnUse">
									<stop  offset="0" style="stop-color:#FFFFFF"/>
									<stop  offset="1" style="stop-color:#000000"/>
								</radialGradient>
								<polygon class="st35" points="29.2,13.8 1.1,-14.3 7.6,-20.7 35.6,7.3 								"/>
							</g>
						</mask>
						<g class="st36">
							<polygon class="st5" points="14.3,-12.5 10,-16.8 5.7,-12.5 							"/>
							<polygon class="st5" points="23.8,-3 13.3,-3 26.8,10.5 32.1,5.3 							"/>
							<polygon class="st5" points="15.2,-12.5 10.5,-17.3 5.7,-12.5 							"/>
							<polygon class="st5" points="24.7,-3 14.2,-3 27.3,10.1 32.6,4.8 							"/>
						</g>
						<defs>
							<filter id="Adobe_OpacityMaskFilter_11_" filterUnits="userSpaceOnUse" x="1.9" y="-17.4" width="26.9" height="27.8">
								<feColorMatrix  type="matrix" values="1 0 0 0 0  0 1 0 0 0  0 0 1 0 0  0 0 0 1 0"/>
							</filter>
						</defs>
						<mask maskUnits="userSpaceOnUse" x="1.9" y="-17.4" width="26.9" height="27.8" id="SVGID_35_">
							<g class="st37">
								
									<radialGradient id="SVGID_36_" cx="-234.3166" cy="-463.7082" r="14.3826" gradientTransform="matrix(0.7071 0.7071 -0.7071 0.7071 -144.8998 487.4846)" gradientUnits="userSpaceOnUse">
									<stop  offset="0" style="stop-color:#FFFFFF"/>
									<stop  offset="1" style="stop-color:#000000"/>
								</radialGradient>
								<polygon class="st38" points="25.4,13.7 -2.6,-14.4 3.8,-20.8 31.9,7.2 								"/>
							</g>
						</mask>
						<g class="st39">
							<polygon class="st5" points="10.6,-12.5 6.2,-16.9 1.9,-12.5 							"/>
							<polygon class="st5" points="20.1,-3 9.6,-3 23.1,10.5 28.3,5.2 							"/>
							<polygon class="st5" points="11.5,-12.5 6.7,-17.4 1.9,-12.5 							"/>
							<polygon class="st5" points="21,-3 10.5,-3 23.5,10 28.8,4.7 							"/>
						</g>
					</g>
					<g>
						<defs>
							<filter id="Adobe_OpacityMaskFilter_12_" filterUnits="userSpaceOnUse" x="7.4" y="-1.8" width="27.8" height="27.8">
								<feColorMatrix  type="matrix" values="1 0 0 0 0  0 1 0 0 0  0 0 1 0 0  0 0 0 1 0"/>
							</filter>
						</defs>
						<mask maskUnits="userSpaceOnUse" x="7.4" y="-1.8" width="27.8" height="27.8" id="SVGID_37_">
							<g class="st40">
								
									<radialGradient id="SVGID_38_" cx="-218.8076" cy="-457.2326" r="14.3825" gradientTransform="matrix(0.7071 0.7071 -0.7071 0.7071 -144.8998 487.4846)" gradientUnits="userSpaceOnUse">
									<stop  offset="0" style="stop-color:#FFFFFF"/>
									<stop  offset="1" style="stop-color:#000000"/>
								</radialGradient>
								<polygon class="st41" points="31.8,29.2 3.8,1.2 10.2,-5.3 38.2,22.7 								"/>
							</g>
						</mask>
						<g class="st42">
							<polygon class="st5" points="29.9,15.9 29.9,20.6 24.1,20.6 29.5,26 34.7,20.7 							"/>
							<polygon class="st5" points="25.5,11.5 12.6,-1.3 7.4,3.9 15,11.5 							"/>
							<polygon class="st5" points="26.4,11.5 13.1,-1.8 7.8,3.4 15.9,11.5 							"/>
							<polygon class="st5" points="29.9,15 29.9,20.6 25,20.6 29.9,25.5 35.2,20.3 							"/>
						</g>
						<defs>
							<filter id="Adobe_OpacityMaskFilter_13_" filterUnits="userSpaceOnUse" x="3.6" y="-1.9" width="27.8" height="27.8">
								<feColorMatrix  type="matrix" values="1 0 0 0 0  0 1 0 0 0  0 0 1 0 0  0 0 0 1 0"/>
							</filter>
						</defs>
						<mask maskUnits="userSpaceOnUse" x="3.6" y="-1.9" width="27.8" height="27.8" id="SVGID_39_">
							<g class="st43">
								
									<radialGradient id="SVGID_40_" cx="-221.5302" cy="-454.6347" r="14.3825" gradientTransform="matrix(0.7071 0.7071 -0.7071 0.7071 -144.8998 487.4846)" gradientUnits="userSpaceOnUse">
									<stop  offset="0" style="stop-color:#FFFFFF"/>
									<stop  offset="1" style="stop-color:#000000"/>
								</radialGradient>
								<polygon class="st44" points="28,29.1 0,1.1 6.5,-5.4 34.5,22.7 								"/>
							</g>
						</mask>
						<g class="st45">
							<polygon class="st5" points="21.8,11.5 8.9,-1.4 3.6,3.8 11.3,11.5 							"/>
							<polygon class="st5" points="29.9,19.6 29.9,20.6 20.4,20.6 25.7,25.9 31,20.7 							"/>
							<polygon class="st5" points="22.8,11.5 9.3,-1.9 4.1,3.4 12.3,11.5 							"/>
							<polygon class="st5" points="29.9,18.7 29.9,20.6 21.3,20.6 26.2,25.4 31.4,20.2 							"/>
						</g>
					</g>
					<g>
						<defs>
							<filter id="Adobe_OpacityMaskFilter_14_" filterUnits="userSpaceOnUse" x="-14.5" y="-14.9" width="24.4" height="27.7">
								<feColorMatrix  type="matrix" values="1 0 0 0 0  0 1 0 0 0  0 0 1 0 0  0 0 0 1 0"/>
							</filter>
						</defs>
						<mask maskUnits="userSpaceOnUse" x="-14.5" y="-14.9" width="24.4" height="27.7" id="SVGID_41_">
							<g class="st46">
								
									<radialGradient id="SVGID_42_" cx="-211.1366" cy="395.5522" r="14.3825" gradientTransform="matrix(0.7071 -0.7071 0.7071 0.7071 -133.6833 -432.3522)" gradientUnits="userSpaceOnUse">
									<stop  offset="0" style="stop-color:#FFFFFF"/>
									<stop  offset="1" style="stop-color:#000000"/>
								</radialGradient>
								<polygon class="st47" points="16.5,-11.5 -11.6,16.6 -18,10.1 10,-17.9 								"/>
							</g>
						</mask>
						<g class="st48">
							<polygon class="st5" points="9.9,-12.5 8,-14.4 6.1,-12.5 							"/>
							<polygon class="st5" points="-3.4,-3 -14.1,7.7 -8.9,12.9 -8.9,11.5 -7.4,11.5 7.2,-3 							"/>
							<polygon class="st5" points="9.9,-12.5 7.5,-14.9 5.2,-12.5 							"/>
							<polygon class="st5" points="-4.3,-3 -14.5,7.2 -9.3,12.5 -8.9,12.1 -8.9,11.5 -8.3,11.5 6.2,-3 							"/>
						</g>
						<defs>
							<filter id="Adobe_OpacityMaskFilter_15_" filterUnits="userSpaceOnUse" x="-14.6" y="-3" width="25.5" height="19.7">
								<feColorMatrix  type="matrix" values="1 0 0 0 0  0 1 0 0 0  0 0 1 0 0  0 0 0 1 0"/>
							</filter>
						</defs>
						<mask maskUnits="userSpaceOnUse" x="-14.6" y="-3" width="25.5" height="19.7" id="SVGID_43_">
							<g class="st49">
								
									<radialGradient id="SVGID_44_" cx="-213.8587" cy="398.151" r="14.3828" gradientTransform="matrix(0.7071 -0.7071 0.7071 0.7071 -133.6833 -432.3522)" gradientUnits="userSpaceOnUse">
									<stop  offset="0" style="stop-color:#FFFFFF"/>
									<stop  offset="1" style="stop-color:#000000"/>
								</radialGradient>
								<polygon class="st50" points="16.4,-7.7 -11.6,20.3 -18.1,13.9 9.9,-14.2 								"/>
							</g>
						</mask>
						<g class="st51">
							<polygon class="st5" points="0.3,-3 -14.2,11.5 -8.9,16.7 -8.9,16.7 -8.9,11.5 -3.7,11.5 10.8,-3 							"/>
							<polygon class="st5" points="-0.6,-3 -14.6,11 -9.4,16.3 -8.9,15.8 -8.9,11.5 -4.7,11.5 9.9,-3 							"/>
						</g>
					</g>
					<g>
						<defs>
							<filter id="Adobe_OpacityMaskFilter_16_" filterUnits="userSpaceOnUse" x="-6.3" y="-3" width="24.2" height="14.6">
								<feColorMatrix  type="matrix" values="1 0 0 0 0  0 1 0 0 0  0 0 1 0 0  0 0 0 1 0"/>
							</filter>
						</defs>
						<mask maskUnits="userSpaceOnUse" x="-6.3" y="-3" width="24.2" height="14.6" id="SVGID_45_">
							<g class="st52">
								
									<radialGradient id="SVGID_46_" cx="-213.4254" cy="404.4001" r="14.3827" gradientTransform="matrix(0.7071 -0.7071 0.7071 0.7071 -133.6833 -432.3522)" gradientUnits="userSpaceOnUse">
									<stop  offset="0" style="stop-color:#FFFFFF"/>
									<stop  offset="1" style="stop-color:#000000"/>
								</radialGradient>
								<polygon class="st53" points="21.1,-3.6 -6.9,24.5 -13.4,18 14.6,-10 								"/>
							</g>
						</mask>
						<g class="st54">
							<polygon class="st5" points="9.1,-3 -5.4,11.5 5.1,11.5 17.9,-1.3 16.1,-3 							"/>
							<polygon class="st5" points="8.2,-3 -6.3,11.5 4.2,11.5 17.4,-1.7 16.1,-3 							"/>
						</g>
						<defs>
							<filter id="Adobe_OpacityMaskFilter_17_" filterUnits="userSpaceOnUse" x="-8.3" y="-3" width="26.1" height="27.6">
								<feColorMatrix  type="matrix" values="1 0 0 0 0  0 1 0 0 0  0 0 1 0 0  0 0 0 1 0"/>
							</filter>
						</defs>
						<mask maskUnits="userSpaceOnUse" x="-8.3" y="-3" width="26.1" height="27.6" id="SVGID_47_">
							<g class="st55">
								
									<radialGradient id="SVGID_48_" cx="-216.1479" cy="406.9985" r="14.3828" gradientTransform="matrix(0.7071 -0.7071 0.7071 0.7071 -133.6833 -432.3522)" gradientUnits="userSpaceOnUse">
									<stop  offset="0" style="stop-color:#FFFFFF"/>
									<stop  offset="1" style="stop-color:#000000"/>
								</radialGradient>
								<polygon class="st56" points="21,0.2 -7,28.2 -13.5,21.7 14.6,-6.3 								"/>
							</g>
						</mask>
						<g class="st57">
							<polygon class="st5" points="8.8,11.5 17.8,2.5 12.6,-2.8 -1.7,11.5 							"/>
							<polygon class="st5" points="-8.3,20.6 -4.3,24.6 -0.3,20.6 							"/>
							<polygon class="st5" points="11.9,-3 -2.7,11.5 7.8,11.5 17.3,2 12.3,-3 							"/>
							<polygon class="st5" points="-8.3,20.6 -4.7,24.1 -1.2,20.6 							"/>
						</g>
					</g>
					<g>
						<defs>
							<filter id="Adobe_OpacityMaskFilter_18_" filterUnits="userSpaceOnUse" x="-4.6" y="1.9" width="27.8" height="27.8">
								<feColorMatrix  type="matrix" values="1 0 0 0 0  0 1 0 0 0  0 0 1 0 0  0 0 0 1 0"/>
							</filter>
						</defs>
						<mask maskUnits="userSpaceOnUse" x="-4.6" y="1.9" width="27.8" height="27.8" id="SVGID_49_">
							<g class="st58">
								
									<radialGradient id="SVGID_50_" cx="-215.9624" cy="414.4847" r="14.3827" gradientTransform="matrix(0.7071 -0.7071 0.7071 0.7071 -133.6833 -432.3522)" gradientUnits="userSpaceOnUse">
									<stop  offset="0" style="stop-color:#FFFFFF"/>
									<stop  offset="1" style="stop-color:#000000"/>
								</radialGradient>
								<polygon class="st59" points="26.4,5.3 -1.6,33.4 -8,26.9 20,-1.1 								"/>
							</g>
						</mask>
						<g class="st60">
							<polygon class="st5" points="19.4,11.5 23.2,7.7 18,2.4 8.8,11.5 							"/>
							<polygon class="st5" points="-0.2,20.6 -4.1,24.5 1.1,29.8 10.3,20.6 							"/>
							<polygon class="st5" points="18.4,11.5 22.8,7.2 17.5,1.9 7.9,11.5 							"/>
							<polygon class="st5" points="-1.1,20.6 -4.6,24 0.7,29.3 9.4,20.6 							"/>
						</g>
						<defs>
							<filter id="Adobe_OpacityMaskFilter_19_" filterUnits="userSpaceOnUse" x="-4.7" y="5.7" width="27.8" height="27.8">
								<feColorMatrix  type="matrix" values="1 0 0 0 0  0 1 0 0 0  0 0 1 0 0  0 0 0 1 0"/>
							</filter>
						</defs>
						<mask maskUnits="userSpaceOnUse" x="-4.7" y="5.7" width="27.8" height="27.8" id="SVGID_51_">
							<g class="st61">
								
									<radialGradient id="SVGID_52_" cx="-218.6841" cy="417.0839" r="14.3826" gradientTransform="matrix(0.7071 -0.7071 0.7071 0.7071 -133.6833 -432.3522)" gradientUnits="userSpaceOnUse">
									<stop  offset="0" style="stop-color:#FFFFFF"/>
									<stop  offset="1" style="stop-color:#000000"/>
								</radialGradient>
								<polygon class="st62" points="26.4,9.1 -1.7,37.1 -8.1,30.7 19.9,2.6 								"/>
							</g>
						</mask>
						<g class="st63">
							<polygon class="st5" points="23,11.5 23.2,11.4 17.9,6.2 12.5,11.5 							"/>
							<polygon class="st5" points="3.5,20.6 -4.2,28.3 1.1,33.5 14,20.6 							"/>
							<polygon class="st5" points="22.1,11.5 22.7,11 17.4,5.7 11.6,11.5 							"/>
							<polygon class="st5" points="2.5,20.6 -4.7,27.8 0.6,33.1 13,20.6 							"/>
						</g>
					</g>
				</g>
			</g>
		</g>
	</g>
</g>
</svg>
