<svg id="Layer_5" enable-background="new 0 0 64 64" height="512" viewBox="0 0 64 64" width="512" xmlns="http://www.w3.org/2000/svg"><g><path d="m17.319 28.409c4.738-2.584 7.681-7.542 7.681-12.939v-6.511l-.854-.126c-2.733-.404-5.313-1.525-7.46-3.243-.954-.762-2.418-.763-3.374.002-2.146 1.717-4.726 2.838-7.458 3.241l-.854.126v6.511c0 5.397 2.943 10.354 7.68 12.938.71.387 1.511.592 2.32.592s1.611-.205 2.319-.591zm-3.319-1.616c-.121-.045-.248-.078-.362-.14-4.095-2.234-6.638-6.518-6.638-11.183v-4.806c2.534-.503 4.925-1.562 7-3.088v3.424h2v-3.424c2.074 1.526 4.465 2.586 7 3.089v4.806c0 4.665-2.544 8.949-6.639 11.183-.114.062-.24.095-.361.14v-9.794h-2z"/><path d="m14 13h2v2h-2z"/><path d="m29 35h2v2h-2z"/><path d="m25 35h2v2h-2z"/><path d="m33 35h2v2h-2z"/><path d="m37 27h2v2h-2z"/><path d="m29 27h2v2h-2z"/><path d="m33 27h2v2h-2z"/><path d="m57.184 33c.414 1.161 1.514 2 2.816 2 1.654 0 3-1.346 3-3s-1.346-3-3-3c-1.302 0-2.402.839-2.816 2h-4.235c-.065-1.372-.259-2.708-.576-4h3.627c1.654 0 3-1.346 3-3v-3.184c1.161-.414 2-1.514 2-2.816 0-1.654-1.346-3-3-3s-3 1.346-3 3c0 1.302.839 2.402 2 2.816v3.184c0 .551-.449 1-1 1h-4.225c-2.785-7.842-10.09-13.537-18.775-13.949v-4.235c1.161-.414 2-1.514 2-2.816 0-1.654-1.346-3-3-3s-3 1.346-3 3c0 1.302.839 2.402 2 2.816v4.234c-.67.032-1.336.095-2 .19v-6.24h-2.597c-2.613 0-5.176-.899-7.217-2.531-1.183-.948-2.669-1.469-4.186-1.469s-3.003.521-4.186 1.469c-2.042 1.632-4.605 2.531-7.217 2.531h-2.597v10.47c0 6.272 3.133 12.069 8.27 15.53h-2.454c-.414-1.161-1.514-2-2.816-2-1.654 0-3 1.346-3 3s1.346 3 3 3c1.302 0 2.402-.839 2.816-2h4.235c.065 1.372.259 2.708.576 4h-3.627c-1.654 0-3 1.346-3 3v3.184c-1.161.414-2 1.514-2 2.816 0 1.654 1.346 3 3 3s3-1.346 3-3c0-1.302-.839-2.402-2-2.816v-3.184c0-.551.449-1 1-1h4.225c2.113 5.95 6.825 10.662 12.775 12.775v6.225c0 .551-.449 1-1 1h-3.184c-.414-1.161-1.514-2-2.816-2-1.654 0-3 1.346-3 3s1.346 3 3 3c1.302 0 2.402-.839 2.816-2h3.184c1.654 0 3-1.346 3-3v-5.627c1.292.317 2.628.511 4 .576v4.235c-1.161.414-2 1.514-2 2.816 0 1.654 1.346 3 3 3s3-1.346 3-3c0-1.302-.839-2.402-2-2.816v-4.235c1.372-.065 2.708-.259 4-.576v5.627c0 1.654 1.346 3 3 3h3.184c.414 1.161 1.514 2 2.816 2 1.654 0 3-1.346 3-3s-1.346-3-3-3c-1.302 0-2.402.839-2.816 2h-3.184c-.551 0-1-.449-1-1v-6.225c5.95-2.113 10.662-6.825 12.775-12.775h4.225c.551 0 1 .449 1 1v3.184c-1.161.414-2 1.514-2 2.816 0 1.654 1.346 3 3 3s3-1.346 3-3c0-1.302-.839-2.402-2-2.816v-3.184c0-1.654-1.346-3-3-3h-3.627c.317-1.292.511-2.628.576-4zm2.816-2c.551 0 1 .449 1 1s-.449 1-1 1-1-.449-1-1 .449-1 1-1zm-2-14c.551 0 1 .449 1 1s-.449 1-1 1-1-.449-1-1 .449-1 1-1zm-54 16c-.551 0-1-.449-1-1s.449-1 1-1 1 .449 1 1-.449 1-1 1zm2 14c-.551 0-1-.449-1-1s.449-1 1-1 1 .449 1 1-.449 1-1 1zm12 14c-.551 0-1-.449-1-1s.449-1 1-1 1 .449 1 1-.449 1-1 1zm28-2c.551 0 1 .449 1 1s-.449 1-1 1-1-.449-1-1 .449-1 1-1zm-.781-40.62c-1.265.593-2.677 1.089-4.194 1.49-.901-2.464-2.074-4.517-3.444-6.03 2.905.894 5.509 2.473 7.638 4.54zm-13.219-15.38c.551 0 1 .449 1 1s-.449 1-1 1-1-.449-1-1 .449-1 1-1zm-3 12.47v-2.21c.992-.158 1.995-.26 3-.26 2.813 0 5.368 2.901 7.033 7.324-2.222.434-4.598.676-7.033.676-1.277 0-2.538-.082-3.78-.205.506-1.705.78-3.494.78-5.325zm3 7.53c2.648 0 5.242-.273 7.664-.765.76 2.603 1.229 5.592 1.311 8.765h-20.245c3.056-2.059 5.405-4.941 6.803-8.264 1.463.163 2.956.264 4.467.264zm8.975 10c-.083 3.173-.552 6.162-1.311 8.765-2.422-.492-5.016-.765-7.664-.765s-5.242.273-7.664.765c-.76-2.603-1.229-5.592-1.311-8.765zm-29.252-2.835c-5.381-2.935-8.723-8.566-8.723-14.695v-8.47h.597c3.065 0 6.072-1.055 8.467-2.97 1.66-1.329 4.212-1.329 5.874 0 2.394 1.915 5.4 2.97 8.465 2.97h.597v8.47c0 6.129-3.342 11.76-8.723 14.694-2.004 1.093-4.55 1.093-6.554.001zm1.316 2.602c.643.147 1.3.233 1.961.233h6.026c.079 3.358.543 6.491 1.328 9.23-1.826.489-3.507 1.116-4.993 1.867-2.569-3.103-4.149-7.038-4.322-11.33zm5.742 12.853c1.265-.593 2.677-1.089 4.194-1.49.901 2.464 2.074 4.517 3.444 6.03-2.905-.894-5.509-2.473-7.638-4.54zm13.219 15.38c-.551 0-1-.449-1-1s.449-1 1-1 1 .449 1 1-.449 1-1 1zm0-10c-2.813 0-5.368-2.901-7.033-7.324 2.222-.434 4.598-.676 7.033-.676s4.811.242 7.033.676c-1.665 4.423-4.22 7.324-7.033 7.324zm5.581-.84c1.369-1.513 2.543-3.566 3.444-6.03 1.516.4 2.929.897 4.194 1.49-2.129 2.067-4.733 3.646-7.638 4.54zm9.059-6.064c-1.486-.751-3.167-1.378-4.993-1.867.785-2.739 1.248-5.872 1.328-9.23h7.975c-.221 4.202-1.788 8.051-4.31 11.097zm-3.666-13.096c-.079-3.358-.543-6.491-1.328-9.23 1.826-.489 3.507-1.116 4.993-1.867 2.522 3.047 4.089 6.896 4.309 11.096h-7.974zm15.026 14c.551 0 1 .449 1 1s-.449 1-1 1-1-.449-1-1 .449-1 1-1z"/></g></svg>