<svg id="Capa_1" enable-background="new 0 0 512.555 512.555" height="512" viewBox="0 0 512.555 512.555" width="512" xmlns="http://www.w3.org/2000/svg"><g><path d="m464.174 79.751h-17.757c-4.143 0-7.5 3.358-7.5 7.5s3.357 7.5 7.5 7.5h17.757c18.406 0 33.381 14.975 33.381 33.37l-.197 138.453c-.006 4.142 3.348 7.505 7.489 7.511h.011c4.137 0 7.494-3.351 7.5-7.489l.197-138.464c0-26.678-21.703-48.381-48.381-48.381z"/><path d="m303.361 87.251c0 4.142 3.357 7.5 7.5 7.5h103.594c4.143 0 7.5-3.358 7.5-7.5s-3.357-7.5-7.5-7.5h-103.594c-4.142 0-7.5 3.357-7.5 7.5z"/><path d="m504.822 291.046c-.004 0-.007 0-.011 0-4.137 0-7.494 3.351-7.5 7.489l-.038 26.565h-417.034c-4.143 0-7.5 3.358-7.5 7.5s3.357 7.5 7.5 7.5h417.013l-.022 15.29c-.066 18.34-15.041 33.261-33.381 33.261h-415.468c-18.406 0-33.381-14.974-33.381-33.38v-15.169h33.277c4.143 0 7.5-3.358 7.5-7.5s-3.357-7.5-7.5-7.5h-33.277v-196.97c0-18.406 14.975-33.38 33.381-33.38h154.313c4.143 0 7.5-3.358 7.5-7.5s-3.357-7.5-7.5-7.5h-154.313c-26.678-.001-48.381 21.702-48.381 48.379v227.14c0 26.677 21.703 48.381 48.381 48.381h139.311v52.839l-24.559 30.434h-10.567c-4.143 0-7.5 3.358-7.5 7.5s3.357 7.5 7.5 7.5h206.564c4.143 0 7.5-3.358 7.5-7.5s-3.357-7.5-7.5-7.5h-9.708l-24.559-30.433v-52.839h138.987c26.582 0 48.285-21.625 48.381-48.223l.081-56.871c.005-4.144-3.348-7.507-7.49-7.513zm-194.959 160.593h-26.525c-4.143 0-7.5 3.358-7.5 7.5s3.357 7.5 7.5 7.5h30.44l16.369 20.285h-147.739l16.369-20.285h50.808c4.143 0 7.5-3.358 7.5-7.5s-3.357-7.5-7.5-7.5h-46.894v-47.988h107.172z"/><path d="m263.777 365.855v-6.275c0-4.142-3.357-7.5-7.5-7.5s-7.5 3.358-7.5 7.5v6.275c0 4.142 3.357 7.5 7.5 7.5s7.5-3.357 7.5-7.5z"/><path d="m195.032 24.656 26.078 14.793c2.559 1.451 4.427 3.92 5.127 6.777l7.113 29.008c-5.689 5.876-9.201 13.871-9.201 22.676v13.157h-6.565c-14.338 0-26.265 10.5-28.508 24.214h-9.584l-9.787-15.168c-1.381-2.141-3.754-3.434-6.302-3.434h-24.603c-4.143 0-7.5 3.358-7.5 7.5s3.357 7.5 7.5 7.5h20.516l9.787 15.168c1.381 2.141 3.754 3.434 6.302 3.434h13.287v22.058h-26.08c-4.143 0-7.5 3.358-7.5 7.5s3.357 7.5 7.5 7.5h26.08v10.473c0 4.299.419 8.5 1.185 12.58h-14.472c-2.548 0-4.921 1.293-6.302 3.434l-9.787 15.168h-20.516c-4.143 0-7.5 3.358-7.5 7.5s3.357 7.5 7.5 7.5h24.603c2.548 0 4.921-1.293 6.302-3.434l9.787-15.168h15.059c10.606 23.836 34.5 40.505 62.227 40.505s51.621-16.669 62.227-40.505h15.059l9.787 15.168c1.381 2.141 3.754 3.434 6.302 3.434h24.603c4.143 0 7.5-3.358 7.5-7.5s-3.357-7.5-7.5-7.5h-20.516l-9.787-15.168c-1.381-2.141-3.754-3.434-6.302-3.434h-14.472c.766-4.08 1.185-8.281 1.185-12.58v-10.472h26.08c4.143 0 7.5-3.358 7.5-7.5s-3.357-7.5-7.5-7.5h-26.08v-22.058h13.287c2.548 0 4.921-1.293 6.302-3.434l9.787-15.168h20.516c4.143 0 7.5-3.358 7.5-7.5s-3.357-7.5-7.5-7.5h-24.603c-2.548 0-4.921 1.293-6.302 3.434l-9.787 15.168h-9.584c-2.243-13.714-14.17-24.214-28.508-24.214h-6.565v-13.157c0-8.805-3.512-16.801-9.201-22.676l7.113-29.009c.7-2.856 2.568-5.326 5.127-6.777l26.078-14.792c3.604-2.043 4.867-6.621 2.823-10.224s-6.623-4.868-10.224-2.823l-26.078 14.792c-6.135 3.479-10.616 9.404-12.295 16.253l-5.938 24.214c-3.163-1.025-6.534-1.585-10.034-1.585s-6.871.56-10.034 1.585l-5.938-24.213c-1.679-6.85-6.16-12.774-12.295-16.253l-26.078-14.792c-3.603-2.044-8.181-.78-10.224 2.823-2.044 3.601-.78 8.178 2.823 10.222zm8.659 173.157v-57.853c0-7.66 6.232-13.892 13.893-13.892h21.34v27.97c0 4.142 3.357 7.5 7.5 7.5h21.554v26.278h-11.2c-4.143 0-7.5 3.358-7.5 7.5v55.043c-25.732-3.656-45.587-25.821-45.587-52.546zm106.172-57.853v57.853c0 26.725-19.855 48.89-45.586 52.546v-47.543h11.2c4.143 0 7.5-3.358 7.5-7.5v-41.278c0-4.142-3.357-7.5-7.5-7.5h-21.554v-20.47h42.047c7.661 0 13.893 6.232 13.893 13.892zm-35.458-42.049v13.157h-35.256v-13.157c0-9.72 7.908-17.628 17.628-17.628s17.628 7.907 17.628 17.628z"/></g></svg>